<?xml version="1.0" encoding="UTF-8" standalone="no"?><svg xmlns="http://www.w3.org/2000/svg" xmlns:xlink="http://www.w3.org/1999/xlink" contentScriptType="application/ecmascript" contentStyleType="text/css" height="548px" preserveAspectRatio="none" style="width:602px;height:548px;background:#FFFFFF;" version="1.1" viewBox="0 0 602 548" width="602px" zoomAndPan="magnify"><defs><filter height="300%" id="f1dgi47o5gzayq" width="300%" x="-1" y="-1"><feGaussianBlur result="blurOut" stdDeviation="2.0"/><feColorMatrix in="blurOut" result="blurOut2" type="matrix" values="0 0 0 0 0 0 0 0 0 0 0 0 0 0 0 0 0 0 .4 0"/><feOffset dx="4.0" dy="4.0" in="blurOut2" result="blurOut3"/><feBlend in="SourceGraphic" in2="blurOut3" mode="normal"/></filter></defs><g><text fill="#000000" font-family="sans-serif" font-size="18" lengthAdjust="spacing" textLength="180" x="204.5" y="16.708">Billionaires Dataset</text><!--MD5=[10374fc30df4bf91b49878c05376f2cc]
class Billionaire--><rect codeLine="3" fill="#FEFECE" filter="url(#f1dgi47o5gzayq)" height="150.4375" id="Billionaire" style="stroke:#A80036;stroke-width:1.5;" width="113" x="229.5" y="27.9531"/><ellipse cx="254.85" cy="43.9531" fill="#ADD1B2" rx="11" ry="11" style="stroke:#A80036;stroke-width:1.0;"/><path d="M257.1938,39.625 C256.2563,39.1875 255.6625,39.0469 254.7875,39.0469 C252.1625,39.0469 250.1625,41.125 250.1625,43.8438 L250.1625,44.9688 C250.1625,47.5469 252.2719,49.4375 255.1625,49.4375 C256.3813,49.4375 257.5375,49.1406 258.2875,48.5938 C258.8656,48.1875 259.1938,47.7344 259.1938,47.3438 C259.1938,46.8906 258.8031,46.5 258.3344,46.5 C258.1156,46.5 257.9125,46.5781 257.725,46.7656 C257.2719,47.25 257.2719,47.25 257.0844,47.3438 C256.6625,47.6094 255.975,47.7344 255.2094,47.7344 C253.1625,47.7344 251.8656,46.6406 251.8656,44.9375 L251.8656,43.8438 C251.8656,42.0625 253.1156,40.75 254.85,40.75 C255.4281,40.75 256.0375,40.9063 256.5063,41.1563 C256.9906,41.4375 257.1625,41.6563 257.2563,42.0625 C257.3188,42.4688 257.35,42.5938 257.4906,42.7188 C257.6313,42.8594 257.8656,42.9688 258.0844,42.9688 C258.35,42.9688 258.6156,42.8281 258.7875,42.6094 C258.8969,42.4531 258.9281,42.2656 258.9281,41.8438 L258.9281,40.4219 C258.9281,39.9844 258.9125,39.8594 258.8188,39.7031 C258.6625,39.4375 258.3813,39.2969 258.0844,39.2969 C257.7875,39.2969 257.5844,39.3906 257.3656,39.7031 L257.1938,39.625 Z " fill="#000000"/><text fill="#000000" font-family="sans-serif" font-size="12" lengthAdjust="spacing" textLength="58" x="271.15" y="48.1074">Billionaire</text><line style="stroke:#A80036;stroke-width:1.5;" x1="230.5" x2="341.5" y1="59.9531" y2="59.9531"/><text fill="#000000" font-family="sans-serif" font-size="11" lengthAdjust="spacing" textLength="64" x="235.5" y="74.1636">Id: ObjectId</text><line style="stroke:#A80036;stroke-width:1.0;" x1="230.5" x2="341.5" y1="80.7578" y2="80.7578"/><text fill="#000000" font-family="sans-serif" font-size="11" lengthAdjust="spacing" textLength="63" x="235.5" y="94.9683">name: text</text><text fill="#000000" font-family="sans-serif" font-size="11" lengthAdjust="spacing" textLength="72" x="235.5" y="107.7729">rank: integer</text><text fill="#000000" font-family="sans-serif" font-size="11" lengthAdjust="spacing" textLength="74" x="235.5" y="120.5776">year: integer</text><text fill="#000000" font-family="sans-serif" font-size="11" lengthAdjust="spacing" textLength="73" x="235.5" y="133.3823">company: {}</text><text fill="#000000" font-family="sans-serif" font-size="11" lengthAdjust="spacing" textLength="101" x="235.5" y="146.187">demographics: {}</text><text fill="#000000" font-family="sans-serif" font-size="11" lengthAdjust="spacing" textLength="65" x="235.5" y="158.9917">location: {}</text><text fill="#000000" font-family="sans-serif" font-size="11" lengthAdjust="spacing" textLength="59" x="235.5" y="171.7964">wealth: {}</text><!--MD5=[02e4b9b7573f1156f41e60aa5b4e25a4]
class Company--><rect codeLine="15" fill="#FEFECE" filter="url(#f1dgi47o5gzayq)" height="112.0234" id="Company" style="stroke:#A80036;stroke-width:1.5;" width="108" x="7" y="237.9531"/><ellipse cx="31" cy="253.9531" fill="#ADD1B2" rx="11" ry="11" style="stroke:#A80036;stroke-width:1.0;"/><path d="M33.3438,249.625 C32.4063,249.1875 31.8125,249.0469 30.9375,249.0469 C28.3125,249.0469 26.3125,251.125 26.3125,253.8438 L26.3125,254.9688 C26.3125,257.5469 28.4219,259.4375 31.3125,259.4375 C32.5313,259.4375 33.6875,259.1406 34.4375,258.5938 C35.0156,258.1875 35.3438,257.7344 35.3438,257.3438 C35.3438,256.8906 34.9531,256.5 34.4844,256.5 C34.2656,256.5 34.0625,256.5781 33.875,256.7656 C33.4219,257.25 33.4219,257.25 33.2344,257.3438 C32.8125,257.6094 32.125,257.7344 31.3594,257.7344 C29.3125,257.7344 28.0156,256.6406 28.0156,254.9375 L28.0156,253.8438 C28.0156,252.0625 29.2656,250.75 31,250.75 C31.5781,250.75 32.1875,250.9063 32.6563,251.1563 C33.1406,251.4375 33.3125,251.6563 33.4063,252.0625 C33.4688,252.4688 33.5,252.5938 33.6406,252.7188 C33.7813,252.8594 34.0156,252.9688 34.2344,252.9688 C34.5,252.9688 34.7656,252.8281 34.9375,252.6094 C35.0469,252.4531 35.0781,252.2656 35.0781,251.8438 L35.0781,250.4219 C35.0781,249.9844 35.0625,249.8594 34.9688,249.7031 C34.8125,249.4375 34.5313,249.2969 34.2344,249.2969 C33.9375,249.2969 33.7344,249.3906 33.5156,249.7031 L33.3438,249.625 Z " fill="#000000"/><text fill="#000000" font-family="sans-serif" font-size="12" lengthAdjust="spacing" textLength="56" x="47" y="258.1074">Company</text><line style="stroke:#A80036;stroke-width:1.5;" x1="8" x2="114" y1="269.9531" y2="269.9531"/><text fill="#000000" font-family="sans-serif" font-size="11" lengthAdjust="spacing" textLength="95" x="13" y="284.1636">founded: integer</text><text fill="#000000" font-family="sans-serif" font-size="11" lengthAdjust="spacing" textLength="63" x="13" y="296.9683">name: text</text><text fill="#000000" font-family="sans-serif" font-size="11" lengthAdjust="spacing" textLength="96" x="13" y="309.7729">relationship: text</text><text fill="#000000" font-family="sans-serif" font-size="11" lengthAdjust="spacing" textLength="65" x="13" y="322.5776">sector: text</text><text fill="#000000" font-family="sans-serif" font-size="11" lengthAdjust="spacing" textLength="56" x="13" y="335.3823">type: text</text><line style="stroke:#A80036;stroke-width:1.5;" x1="8" x2="114" y1="341.9766" y2="341.9766"/><!--MD5=[c05f0c36453b93cee33886e145478bb2]
class Demographics--><rect codeLine="23" fill="#FEFECE" filter="url(#f1dgi47o5gzayq)" height="73.6094" id="Demographics" style="stroke:#A80036;stroke-width:1.5;" width="120" x="150" y="256.9531"/><ellipse cx="165" cy="272.9531" fill="#ADD1B2" rx="11" ry="11" style="stroke:#A80036;stroke-width:1.0;"/><path d="M167.3438,268.625 C166.4063,268.1875 165.8125,268.0469 164.9375,268.0469 C162.3125,268.0469 160.3125,270.125 160.3125,272.8438 L160.3125,273.9688 C160.3125,276.5469 162.4219,278.4375 165.3125,278.4375 C166.5313,278.4375 167.6875,278.1406 168.4375,277.5938 C169.0156,277.1875 169.3438,276.7344 169.3438,276.3438 C169.3438,275.8906 168.9531,275.5 168.4844,275.5 C168.2656,275.5 168.0625,275.5781 167.875,275.7656 C167.4219,276.25 167.4219,276.25 167.2344,276.3438 C166.8125,276.6094 166.125,276.7344 165.3594,276.7344 C163.3125,276.7344 162.0156,275.6406 162.0156,273.9375 L162.0156,272.8438 C162.0156,271.0625 163.2656,269.75 165,269.75 C165.5781,269.75 166.1875,269.9063 166.6563,270.1563 C167.1406,270.4375 167.3125,270.6563 167.4063,271.0625 C167.4688,271.4688 167.5,271.5938 167.6406,271.7188 C167.7813,271.8594 168.0156,271.9688 168.2344,271.9688 C168.5,271.9688 168.7656,271.8281 168.9375,271.6094 C169.0469,271.4531 169.0781,271.2656 169.0781,270.8438 L169.0781,269.4219 C169.0781,268.9844 169.0625,268.8594 168.9688,268.7031 C168.8125,268.4375 168.5313,268.2969 168.2344,268.2969 C167.9375,268.2969 167.7344,268.3906 167.5156,268.7031 L167.3438,268.625 Z " fill="#000000"/><text fill="#000000" font-family="sans-serif" font-size="12" lengthAdjust="spacing" textLength="88" x="179" y="277.1074">Demographics</text><line style="stroke:#A80036;stroke-width:1.5;" x1="151" x2="269" y1="288.9531" y2="288.9531"/><text fill="#000000" font-family="sans-serif" font-size="11" lengthAdjust="spacing" textLength="70" x="156" y="303.1636">age: integer</text><text fill="#000000" font-family="sans-serif" font-size="11" lengthAdjust="spacing" textLength="71" x="156" y="315.9683">gender: text</text><line style="stroke:#A80036;stroke-width:1.5;" x1="151" x2="269" y1="322.5625" y2="322.5625"/><!--MD5=[4f1f3706c1a355a8488e154afcaed5df]
class Location--><rect codeLine="28" fill="#FEFECE" filter="url(#f1dgi47o5gzayq)" height="99.2188" id="Location" style="stroke:#A80036;stroke-width:1.5;" width="116" x="305" y="244.4531"/><ellipse cx="335.3" cy="260.4531" fill="#ADD1B2" rx="11" ry="11" style="stroke:#A80036;stroke-width:1.0;"/><path d="M337.6438,256.125 C336.7063,255.6875 336.1125,255.5469 335.2375,255.5469 C332.6125,255.5469 330.6125,257.625 330.6125,260.3438 L330.6125,261.4688 C330.6125,264.0469 332.7219,265.9375 335.6125,265.9375 C336.8313,265.9375 337.9875,265.6406 338.7375,265.0938 C339.3156,264.6875 339.6438,264.2344 339.6438,263.8438 C339.6438,263.3906 339.2531,263 338.7844,263 C338.5656,263 338.3625,263.0781 338.175,263.2656 C337.7219,263.75 337.7219,263.75 337.5344,263.8438 C337.1125,264.1094 336.425,264.2344 335.6594,264.2344 C333.6125,264.2344 332.3156,263.1406 332.3156,261.4375 L332.3156,260.3438 C332.3156,258.5625 333.5656,257.25 335.3,257.25 C335.8781,257.25 336.4875,257.4063 336.9563,257.6563 C337.4406,257.9375 337.6125,258.1563 337.7063,258.5625 C337.7688,258.9688 337.8,259.0938 337.9406,259.2188 C338.0813,259.3594 338.3156,259.4688 338.5344,259.4688 C338.8,259.4688 339.0656,259.3281 339.2375,259.1094 C339.3469,258.9531 339.3781,258.7656 339.3781,258.3438 L339.3781,256.9219 C339.3781,256.4844 339.3625,256.3594 339.2688,256.2031 C339.1125,255.9375 338.8313,255.7969 338.5344,255.7969 C338.2375,255.7969 338.0344,255.8906 337.8156,256.2031 L337.6438,256.125 Z " fill="#000000"/><text fill="#000000" font-family="sans-serif" font-size="12" lengthAdjust="spacing" textLength="50" x="352.7" y="264.6074">Location</text><line style="stroke:#A80036;stroke-width:1.5;" x1="306" x2="420" y1="276.4531" y2="276.4531"/><text fill="#000000" font-family="sans-serif" font-size="11" lengthAdjust="spacing" textLength="91" x="311" y="290.6636">citizenship: text</text><text fill="#000000" font-family="sans-serif" font-size="11" lengthAdjust="spacing" textLength="104" x="311" y="303.4683">country code: text</text><text fill="#000000" font-family="sans-serif" font-size="11" lengthAdjust="spacing" textLength="53" x="311" y="316.2729">gdp: float</text><text fill="#000000" font-family="sans-serif" font-size="11" lengthAdjust="spacing" textLength="66" x="311" y="329.0776">region: text</text><line style="stroke:#A80036;stroke-width:1.5;" x1="306" x2="420" y1="335.6719" y2="335.6719"/><!--MD5=[af537c42f7c6a713a4cb863f1dae724a]
class Wealth--><rect codeLine="35" fill="#FEFECE" filter="url(#f1dgi47o5gzayq)" height="86.4141" id="Wealth" style="stroke:#A80036;stroke-width:1.5;" width="132" x="456" y="250.9531"/><ellipse cx="497.55" cy="266.9531" fill="#ADD1B2" rx="11" ry="11" style="stroke:#A80036;stroke-width:1.0;"/><path d="M499.8938,262.625 C498.9563,262.1875 498.3625,262.0469 497.4875,262.0469 C494.8625,262.0469 492.8625,264.125 492.8625,266.8438 L492.8625,267.9688 C492.8625,270.5469 494.9719,272.4375 497.8625,272.4375 C499.0813,272.4375 500.2375,272.1406 500.9875,271.5938 C501.5656,271.1875 501.8938,270.7344 501.8938,270.3438 C501.8938,269.8906 501.5031,269.5 501.0344,269.5 C500.8156,269.5 500.6125,269.5781 500.425,269.7656 C499.9719,270.25 499.9719,270.25 499.7844,270.3438 C499.3625,270.6094 498.675,270.7344 497.9094,270.7344 C495.8625,270.7344 494.5656,269.6406 494.5656,267.9375 L494.5656,266.8438 C494.5656,265.0625 495.8156,263.75 497.55,263.75 C498.1281,263.75 498.7375,263.9063 499.2063,264.1563 C499.6906,264.4375 499.8625,264.6563 499.9563,265.0625 C500.0188,265.4688 500.05,265.5938 500.1906,265.7188 C500.3313,265.8594 500.5656,265.9688 500.7844,265.9688 C501.05,265.9688 501.3156,265.8281 501.4875,265.6094 C501.5969,265.4531 501.6281,265.2656 501.6281,264.8438 L501.6281,263.4219 C501.6281,262.9844 501.6125,262.8594 501.5188,262.7031 C501.3625,262.4375 501.0813,262.2969 500.7844,262.2969 C500.4875,262.2969 500.2844,262.3906 500.0656,262.7031 L499.8938,262.625 Z " fill="#000000"/><text fill="#000000" font-family="sans-serif" font-size="12" lengthAdjust="spacing" textLength="41" x="517.45" y="271.1074">Wealth</text><line style="stroke:#A80036;stroke-width:1.5;" x1="457" x2="587" y1="282.9531" y2="282.9531"/><text fill="#000000" font-family="sans-serif" font-size="11" lengthAdjust="spacing" textLength="56" x="462" y="297.1636">type: text</text><text fill="#000000" font-family="sans-serif" font-size="11" lengthAdjust="spacing" textLength="120" x="462" y="309.9683">worth in billions: float</text><text fill="#000000" font-family="sans-serif" font-size="11" lengthAdjust="spacing" textLength="44" x="462" y="322.7729">how: {}</text><line style="stroke:#A80036;stroke-width:1.5;" x1="457" x2="587" y1="329.3672" y2="329.3672"/><!--MD5=[b17ecc95015d77acb51038eb28a40df3]
class How--><rect codeLine="42" fill="#FEFECE" filter="url(#f1dgi47o5gzayq)" height="124.8281" id="How" style="stroke:#A80036;stroke-width:1.5;" width="128" x="458" y="409.9531"/><ellipse cx="504.25" cy="425.9531" fill="#ADD1B2" rx="11" ry="11" style="stroke:#A80036;stroke-width:1.0;"/><path d="M506.5938,421.625 C505.6563,421.1875 505.0625,421.0469 504.1875,421.0469 C501.5625,421.0469 499.5625,423.125 499.5625,425.8438 L499.5625,426.9688 C499.5625,429.5469 501.6719,431.4375 504.5625,431.4375 C505.7813,431.4375 506.9375,431.1406 507.6875,430.5938 C508.2656,430.1875 508.5938,429.7344 508.5938,429.3438 C508.5938,428.8906 508.2031,428.5 507.7344,428.5 C507.5156,428.5 507.3125,428.5781 507.125,428.7656 C506.6719,429.25 506.6719,429.25 506.4844,429.3438 C506.0625,429.6094 505.375,429.7344 504.6094,429.7344 C502.5625,429.7344 501.2656,428.6406 501.2656,426.9375 L501.2656,425.8438 C501.2656,424.0625 502.5156,422.75 504.25,422.75 C504.8281,422.75 505.4375,422.9063 505.9063,423.1563 C506.3906,423.4375 506.5625,423.6563 506.6563,424.0625 C506.7188,424.4688 506.75,424.5938 506.8906,424.7188 C507.0313,424.8594 507.2656,424.9688 507.4844,424.9688 C507.75,424.9688 508.0156,424.8281 508.1875,424.6094 C508.2969,424.4531 508.3281,424.2656 508.3281,423.8438 L508.3281,422.4219 C508.3281,421.9844 508.3125,421.8594 508.2188,421.7031 C508.0625,421.4375 507.7813,421.2969 507.4844,421.2969 C507.1875,421.2969 506.9844,421.3906 506.7656,421.7031 L506.5938,421.625 Z " fill="#000000"/><text fill="#000000" font-family="sans-serif" font-size="12" lengthAdjust="spacing" textLength="27" x="524.75" y="430.1074">How</text><line style="stroke:#A80036;stroke-width:1.5;" x1="459" x2="585" y1="441.9531" y2="441.9531"/><text fill="#000000" font-family="sans-serif" font-size="11" lengthAdjust="spacing" textLength="80" x="464" y="456.1636">category: text</text><text fill="#000000" font-family="sans-serif" font-size="11" lengthAdjust="spacing" textLength="116" x="464" y="468.9683">from emerging: bool</text><text fill="#000000" font-family="sans-serif" font-size="11" lengthAdjust="spacing" textLength="75" x="464" y="481.7729">industry: text</text><text fill="#000000" font-family="sans-serif" font-size="11" lengthAdjust="spacing" textLength="81" x="464" y="494.5776">inherited: text</text><text fill="#000000" font-family="sans-serif" font-size="11" lengthAdjust="spacing" textLength="101" x="464" y="507.3823">was founder: bool</text><text fill="#000000" font-family="sans-serif" font-size="11" lengthAdjust="spacing" textLength="100" x="464" y="520.187">was political: bool</text><line style="stroke:#A80036;stroke-width:1.5;" x1="459" x2="585" y1="526.7813" y2="526.7813"/><!--MD5=[ed7f761a56ba896284f87ad9fee31e56]
reverse link Billionaire to Company--><path codeLine="51" d="M219.136,160.1191 C185.919,188.0211 146.312,221.2911 115.045,247.5551 " fill="none" id="Billionaire-backto-Company" style="stroke:#A80036;stroke-width:1.0;"/><polygon fill="#FFFFFF" points="229.223,151.6461,222.056,152.4424,220.0345,159.3643,227.2015,158.5681,229.223,151.6461" style="stroke:#A80036;stroke-width:1.0;"/><!--MD5=[628eaf415801aa719c3c4ab8e7220152]
reverse link Billionaire to Demographics--><path codeLine="52" d="M251.279,190.2981 C241.835,213.7851 232.118,237.9501 224.486,256.9291 " fill="none" id="Billionaire-backto-Demographics" style="stroke:#A80036;stroke-width:1.0;"/><polygon fill="#FFFFFF" points="256.181,178.1081,250.2313,182.1826,251.7041,189.2417,257.6537,185.1672,256.181,178.1081" style="stroke:#A80036;stroke-width:1.0;"/><!--MD5=[5e190560f5054fc01d57fa8b642e89c8]
reverse link Billionaire to Location--><path codeLine="53" d="M321.144,190.2171 C328.708,208.7821 336.446,227.7751 343.178,244.2991 " fill="none" id="Billionaire-backto-Location" style="stroke:#A80036;stroke-width:1.0;"/><polygon fill="#FFFFFF" points="316.211,178.1081,314.7703,185.1738,320.7383,189.2213,322.1791,182.1556,316.211,178.1081" style="stroke:#A80036;stroke-width:1.0;"/><!--MD5=[9bb857d6eb47475e584e3f05c02c30d8]
reverse link Billionaire to Wealth--><path codeLine="54" d="M352.694,157.3651 C389.574,186.9001 434.757,223.0851 469.168,250.6431 " fill="none" id="Billionaire-backto-Wealth" style="stroke:#A80036;stroke-width:1.0;"/><polygon fill="#FFFFFF" points="342.528,149.2231,344.7111,156.0958,351.8948,156.724,349.7117,149.8513,342.528,149.2231" style="stroke:#A80036;stroke-width:1.0;"/><!--MD5=[5faad29875d023f53bc60ca6d8bbc08b]
reverse link Wealth to How--><path codeLine="55" d="M522,350.4871 C522,369.3411 522,390.5151 522,409.8161 " fill="none" id="Wealth-backto-How" style="stroke:#A80036;stroke-width:1.0;"/><polygon fill="#FFFFFF" points="522,337.2291,518,343.2291,522,349.2291,526,343.2291,522,337.2291" style="stroke:#A80036;stroke-width:1.0;"/><!--MD5=[1ff3bdfa8e9524f835f51e5b4407f5f0]
@startuml
title Billionaires Dataset

class Billionaire      {
  Id: ObjectId
  - -
  name: text
  rank: integer
  year: integer
  company: {}
  demographics: {}
  location: {}
  wealth: {}
}

class Company    {
  founded: integer
  name: text
  relationship: text
  sector: text
  type: text
}

class Demographics    {
  age: integer
  gender: text
}

class Location    {
  citizenship: text
  country code: text
  gdp: float
  region: text
}

class Wealth    {
  type: text
  worth in billions: float
  how: {}
}


class How    {
  category: text
  from emerging: bool
  industry: text
  inherited: text
  was founder: bool
  was political: bool
}

Billionaire  o- -  Company
Billionaire  o- -  Demographics
Billionaire  o- -  Location
Billionaire  o- -  Wealth
Wealth  o- -  How
@enduml

PlantUML version 1.2021.17beta3(Unknown compile time)
(GPL source distribution)
Java Runtime: Java(TM) SE Runtime Environment
JVM: Java HotSpot(TM) 64-Bit Server VM
Default Encoding: UTF-8
Language: en
Country: US
--></g></svg>